<mxfile host="Electron" modified="2024-01-29T00:04:51.788Z" agent="Mozilla/5.0 (X11; Linux x86_64) AppleWebKit/537.36 (KHTML, like Gecko) draw.io/23.0.2 Chrome/120.0.6099.109 Electron/28.1.0 Safari/537.36" etag="ZLVBDx2aYtJT4pE5fUaX" version="23.0.2" type="device">
  <diagram name="페이지-1" id="9tkFuRPD4fjcHyK1D2w8">
    <mxGraphModel dx="1434" dy="784" grid="1" gridSize="10" guides="1" tooltips="1" connect="1" arrows="1" fold="1" page="1" pageScale="1" pageWidth="827" pageHeight="1169" math="0" shadow="0">
      <root>
        <mxCell id="0" />
        <mxCell id="1" parent="0" />
        <mxCell id="n5sJCqRmYKdPtLP_M0mO-22" value="" style="rounded=0;whiteSpace=wrap;html=1;fillColor=none;dashed=1;dashPattern=8 8;" parent="1" vertex="1">
          <mxGeometry x="80" y="190" width="390" height="430" as="geometry" />
        </mxCell>
        <mxCell id="n5sJCqRmYKdPtLP_M0mO-9" value="" style="shape=trapezoid;perimeter=trapezoidPerimeter;whiteSpace=wrap;html=1;fixedSize=1;fillColor=#d5e8d4;strokeColor=#82b366;" parent="1" vertex="1">
          <mxGeometry x="141" y="320" width="159" height="100" as="geometry" />
        </mxCell>
        <mxCell id="n5sJCqRmYKdPtLP_M0mO-12" value="" style="shape=trapezoid;perimeter=trapezoidPerimeter;whiteSpace=wrap;html=1;fixedSize=1;fillColor=#ffe6cc;strokeColor=#d79b00;" parent="1" vertex="1">
          <mxGeometry x="120" y="420" width="200" height="100" as="geometry" />
        </mxCell>
        <mxCell id="n5sJCqRmYKdPtLP_M0mO-13" value="" style="shape=trapezoid;perimeter=trapezoidPerimeter;whiteSpace=wrap;html=1;fixedSize=1;fillColor=#dae8fc;strokeColor=#6c8ebf;" parent="1" vertex="1">
          <mxGeometry x="160" y="220" width="120" height="100" as="geometry" />
        </mxCell>
        <mxCell id="n5sJCqRmYKdPtLP_M0mO-4" value="End-to-End Test" style="text;html=1;strokeColor=none;fillColor=none;align=center;verticalAlign=middle;whiteSpace=wrap;rounded=0;fontStyle=1" parent="1" vertex="1">
          <mxGeometry x="173.75" y="270" width="92.5" height="30" as="geometry" />
        </mxCell>
        <mxCell id="n5sJCqRmYKdPtLP_M0mO-5" value="Integration Test" style="text;html=1;strokeColor=none;fillColor=none;align=center;verticalAlign=middle;whiteSpace=wrap;rounded=0;fontStyle=1" parent="1" vertex="1">
          <mxGeometry x="173.75" y="350" width="92.5" height="30" as="geometry" />
        </mxCell>
        <mxCell id="n5sJCqRmYKdPtLP_M0mO-6" value="UnitTest" style="text;html=1;strokeColor=none;fillColor=none;align=center;verticalAlign=middle;whiteSpace=wrap;rounded=0;fontStyle=1" parent="1" vertex="1">
          <mxGeometry x="173.75" y="450" width="92.5" height="30" as="geometry" />
        </mxCell>
        <mxCell id="n5sJCqRmYKdPtLP_M0mO-14" value="" style="shape=flexArrow;endArrow=classic;startArrow=classic;html=1;rounded=0;fillColor=#e1d5e7;strokeColor=#9673a6;" parent="1" edge="1">
          <mxGeometry width="100" height="100" relative="1" as="geometry">
            <mxPoint x="344" y="520" as="sourcePoint" />
            <mxPoint x="344" y="220" as="targetPoint" />
          </mxGeometry>
        </mxCell>
        <mxCell id="n5sJCqRmYKdPtLP_M0mO-15" value="" style="strokeWidth=2;html=1;shape=mxgraph.flowchart.annotation_2;align=left;labelPosition=right;pointerEvents=1;rotation=-90;" parent="1" vertex="1">
          <mxGeometry x="195.5" y="460" width="50" height="200" as="geometry" />
        </mxCell>
        <mxCell id="n5sJCqRmYKdPtLP_M0mO-17" value="테스트 개수" style="text;html=1;strokeColor=none;fillColor=none;align=center;verticalAlign=middle;whiteSpace=wrap;rounded=0;fontStyle=1" parent="1" vertex="1">
          <mxGeometry x="173.75" y="585" width="92.5" height="30" as="geometry" />
        </mxCell>
        <mxCell id="n5sJCqRmYKdPtLP_M0mO-18" value="회귀방지,&lt;br&gt;리팩터링 내성" style="text;html=1;strokeColor=none;fillColor=none;align=center;verticalAlign=middle;whiteSpace=wrap;rounded=0;fontStyle=1" parent="1" vertex="1">
          <mxGeometry x="367" y="240" width="92.5" height="30" as="geometry" />
        </mxCell>
        <mxCell id="n5sJCqRmYKdPtLP_M0mO-19" value="빠른 피드백,&lt;br&gt;유지보수성" style="text;html=1;strokeColor=none;fillColor=none;align=center;verticalAlign=middle;whiteSpace=wrap;rounded=0;fontStyle=1" parent="1" vertex="1">
          <mxGeometry x="367" y="470" width="92.5" height="30" as="geometry" />
        </mxCell>
      </root>
    </mxGraphModel>
  </diagram>
</mxfile>
